PathFileType	4	(X/Y/Z)	/Users/itak/Documents/Research/Walk-IL/dataset/trc/00102_00007.trc
DataRate	CameraRate	NumFrames	NumMarkers	Units	OrigDataRate	OrigDataStartFrame	OrigNumFrames
100.000000	100.000000	4	53	mm	100.000000	423	565
Frame#	Time	RPSI			LPSI			L3			STRN			T10			C7			CLAV			RBAK			LBAK			LSHO			LUPA			LAEL			LAOL			LWTS			LWPS			LFRA			LIFD			LHPS			LHTS			RSHO			RUPA			RAEL			RAOL			RWTS			RWPS			RFRA			RIFD			RHTS			RHPS			RBHD			LFHD			RFHD			LBHD			LHIP			RHIP			RASI			LASI			LKNE			LTHI			LANK			LTIP			LTOE			LMT1			LMT5			LHEE			RKNE			RTHI			RANK			RTIP			RTOE			RMT1			RMT5			RHEE			
		X1	Y1	Z1	X2	Y2	Z2	X3	Y3	Z3	X4	Y4	Z4	X5	Y5	Z5	X6	Y6	Z6	X7	Y7	Z7	X8	Y8	Z8	X9	Y9	Z9	X10	Y10	Z10	X11	Y11	Z11	X12	Y12	Z12	X13	Y13	Z13	X14	Y14	Z14	X15	Y15	Z15	X16	Y16	Z16	X17	Y17	Z17	X18	Y18	Z18	X19	Y19	Z19	X20	Y20	Z20	X21	Y21	Z21	X22	Y22	Z22	X23	Y23	Z23	X24	Y24	Z24	X25	Y25	Z25	X26	Y26	Z26	X27	Y27	Z27	X28	Y28	Z28	X29	Y29	Z29	X30	Y30	Z30	X31	Y31	Z31	X32	Y32	Z32	X33	Y33	Z33	X34	Y34	Z34	X35	Y35	Z35	X36	Y36	Z36	X37	Y37	Z37	X38	Y38	Z38	X39	Y39	Z39	X40	Y40	Z40	X41	Y41	Z41	X42	Y42	Z42	X43	Y43	Z43	X44	Y44	Z44	X45	Y45	Z45	X46	Y46	Z46	X47	Y47	Z47	X48	Y48	Z48	X49	Y49	Z49	X50	Y50	Z50	X51	Y51	Z51	X52	Y52	Z52	X53	Y53	Z53	

424	4.23	312.2992248535156	1121.007446289062	-199.5134582519531	299.754150390625	1121.506469726562	-334.4193420410156	297.636474609375	1158.550903320312	-266.6061706542969	519.299072265625	1365.998413085938	-287.0184020996094	270.8165588378906	1309.3427734375	-253.3450469970703	297.3653869628906	1603.21630859375	-272.1980895996094	481.3119506835938	1500.36083984375	-287.5725708007812	260.3332214355469	1419.6162109375	-174.7519836425781	276.8391723632812	1583.502197265625	-371.5521240234375	354.2277526855469	1570.79541015625	-451.0674743652344	319.8104553222656	1439.701293945312	-516.2417602539062	313.9342041015625	1222.5673828125	-539.5042724609375	261.9970703125	1212.832153320312	-469.5690612792969	405.0482177734375	959.4774780273438	-520.9208984375	317.1978759765625	938.5177612304688	-528.9476928710938	321.0659790039062	1105.482299804688	-547.4400634765625	405.4942932128906	764.1315307617188	-497.5374755859375	339.8905639648438	861.6882934570312	-535.3912353515625	410.4512023925781	868.1851806640625	-533.5629272460938	379.0527648925781	1589.306274414062	-100.2804946899414	378.0224304199219	1518.760620117188	-31.93330192565918	409.7731323242188	1228.427978515625	15.13152694702148	385.4721069335938	1216.07666015625	-78.63063049316406	598.9141235351562	1021.158569335938	-7.293216228485107	535.9428100585938	990.779052734375	35.96982192993164	450.3963317871094	1162.2216796875	31.10336494445801	666.7360229492188	836.7933959960938	-15.32012462615967	653.575927734375	923.4358520507812	0.2872187197208405	595.849853515625	903.3116455078125	40.67452621459961	341.7065124511719	1773.180908203125	-201.7789611816406	489.3023071289062	1844.609252929688	-349.7347412109375	500.4760131835938	1849.907470703125	-220.5138397216797	319.9649047851562	1771.196044921875	-335.8436584472656	389.3329162597656	1039.277465820312	-453.4153137207031	451.4889221191406	1031.300415039062	-91.22072601318359	526.4879760742188	1106.693725585938	-149.6732635498047	497.2072143554688	1111.15625	-415.2481994628906	572.0669555664062	552.5399780273438	-432.826904296875	501.0339965820312	691.9486694335938	-455.9657592773438	344.51171875	74.99646759033203	-452.3653564453125	416.5619201660156	326.05419921875	-466.8258972167969	570.0609741210938	64.23869323730469	-409.6847229003906	496.0519409179688	66.73350524902344	-370.4285888671875	463.7448120117188	56.68413925170898	-480.9921875	279.5943298339844	85.07521057128906	-386.6934509277344	461.0380859375	538.6038818359375	-144.9120330810547	475.9205017089844	819.300048828125	-109.0094680786133	411.130615234375	27.16935539245605	-202.4362182617188	447.6889343261719	404.8059387207031	-141.9457855224609	640.761962890625	40.08283615112305	-267.0997009277344	578.416259765625	36.48431777954102	-305.5767822265625	545.5225219726562	36.76459503173828	-186.5607299804688	351.8624267578125	32.86826324462891	-248.1909027099609	
425	4.24	315.5690612792969	1121.002685546875	-199.9440612792969	303.5142211914062	1121.622680664062	-334.8611145019531	301.1152954101562	1158.662231445312	-266.9949340820312	522.8047485351562	1366.265625	-286.8173217773438	274.2980651855469	1309.368408203125	-253.3789520263672	300.6383361816406	1603.271118164062	-272.1202087402344	484.6481628417969	1500.498291015625	-287.4192199707031	263.5834350585938	1419.706665039062	-174.6487884521484	280.1612548828125	1583.543701171875	-371.4654235839844	357.5827331542969	1570.866088867188	-450.9806518554688	322.9671936035156	1439.821166992188	-516.115966796875	316.4674072265625	1222.75830078125	-539.3277587890625	264.6373291015625	1213.146240234375	-469.3006286621094	406.8238830566406	959.3822021484375	-520.910400390625	318.9320983886719	938.6986083984375	-528.79736328125	323.2639770507812	1105.64306640625	-547.2974243164062	406.8340454101562	764.0534057617188	-497.5252075195312	341.3802795410156	861.7786254882812	-535.2633666992188	411.9204406738281	868.0399780273438	-533.5272827148438	382.3218078613281	1589.45947265625	-100.1831283569336	381.4227600097656	1518.875732421875	-31.86066055297852	413.93798828125	1228.56884765625	15.0925178527832	389.475341796875	1216.182006835938	-78.65004730224609	603.83203125	1021.999389648438	-7.87863302230835	541.1260375976562	991.383544921875	35.55687713623047	454.8703918457031	1162.478393554688	30.95557975769043	672.2720336914062	837.877197265625	-16.24492454528809	658.8599243164062	924.4666137695312	-0.5609423518180847	601.342529296875	904.1209106445312	40.02659606933594	345.0908508300781	1773.438110351562	-201.8366394042969	492.7569885253906	1844.521484375	-349.8975830078125	503.9596252441406	1849.949096679688	-220.6798248291016	323.3274536132812	1771.317504882812	-335.8886108398438	393.5958557128906	1039.488403320312	-453.50244140625	454.4791870117188	1031.277099609375	-91.20094299316406	529.5765380859375	1106.768920898438	-149.3404998779297	501.2555541992188	1111.467407226562	-414.9637451171875	574.3644409179688	552.2994384765625	-432.1785583496094	504.0599670410156	691.8006591796875	-455.7520141601562	356.7044372558594	70.43984222412109	-452.7618103027344	423.4421997070312	323.0365295410156	-467.2644958496094	581.9693603515625	65.52783966064453	-406.9580383300781	507.3616027832031	66.27488708496094	-368.7738037109375	476.7908630371094	54.95257949829102	-479.6643981933594	290.6870422363281	79.16452789306641	-388.0063781738281	462.5689697265625	538.6033935546875	-145.0475311279297	478.372314453125	819.3671875	-109.1203460693359	411.1856079101562	27.27069091796875	-202.6241760253906	448.7100219726562	404.8247375488281	-142.1825714111328	640.90625	39.97538757324219	-267.1811828613281	578.4398193359375	36.30153274536133	-305.6099243164062	545.4412841796875	36.61989974975586	-186.4577026367188	351.9701843261719	33.01165771484375	-248.3471984863281	
426	4.25	318.7916259765625	1121.016235351562	-200.4370422363281	307.2407531738281	1121.737915039062	-335.3646850585938	304.5656433105469	1158.757446289062	-267.4539184570312	526.229736328125	1366.558471679688	-286.6785888671875	277.6949462890625	1309.365966796875	-253.5131072998047	303.7750244140625	1603.298583984375	-272.1340637207031	487.8714294433594	1500.637817382812	-287.3020324707031	266.703125	1419.756591796875	-174.6690063476562	283.3720092773438	1583.558349609375	-371.4743957519531	360.8540954589844	1570.931518554688	-450.968017578125	326.0636901855469	1439.921752929688	-516.06005859375	318.9994812011719	1222.91552734375	-539.1943969726562	267.3742065429688	1213.409912109375	-469.0452575683594	408.7676696777344	959.3165283203125	-520.9407958984375	320.8526000976562	938.8558959960938	-528.6610717773438	325.5289916992188	1105.780517578125	-547.193359375	408.4861755371094	764.0112915039062	-497.55224609375	343.1044921875	861.8569946289062	-535.1434936523438	413.6250305175781	867.9359741210938	-533.5429077148438	385.3849182128906	1589.58203125	-100.1473617553711	384.5941162109375	1518.951416015625	-31.85519599914551	417.8279113769531	1228.65673828125	14.91708755493164	393.2741394042969	1216.267822265625	-78.80693054199219	608.4378051757812	1022.757385253906	-8.527259826660156	545.9719848632812	991.9107666015625	35.02663040161133	459.0382385253906	1162.673583984375	30.6760425567627	677.4663696289062	838.87158203125	-17.23522567749023	663.8143310546875	925.406982421875	-1.460358023643494	606.4650268554688	904.8402709960938	39.27511978149414	348.3444519042969	1773.697875976562	-201.9397430419922	496.1089782714844	1844.415161132812	-350.0887451171875	507.3222045898438	1849.967407226562	-220.8693084716797	326.5745849609375	1771.443603515625	-335.9841003417969	397.806884765625	1039.665649414062	-453.6207275390625	457.4228820800781	1031.27880859375	-91.23662567138672	532.596435546875	1106.861083984375	-149.0642395019531	505.2474060058594	1111.760864257812	-414.7336730957031	576.4852294921875	552.017333984375	-431.4529113769531	507.0068664550781	691.6251220703125	-455.43359375	367.9943237304688	66.33589935302734	-453.0335388183594	429.8798828125	320.2605285644531	-467.6093444824219	592.7728271484375	66.71270751953125	-404.0724487304688	517.6344604492188	65.89279174804688	-367.0060424804688	488.8113098144531	53.37145233154297	-478.1907958984375	300.9329833984375	73.86174011230469	-389.2207336425781	464.1395874023438	538.615234375	-145.1930541992188	480.7806701660156	819.4248046875	-109.1935195922852	411.2409057617188	27.3628978729248	-202.7962036132812	449.7488708496094	404.8440551757812	-142.4292755126953	641.050537109375	39.86849594116211	-267.2555847167969	578.4764404296875	36.17853546142578	-305.6390686035156	545.3690185546875	36.49109649658203	-186.3585968017578	352.0802612304688	33.16580581665039	-248.4978179931641	
427	4.26	321.9661254882812	1121.052490234375	-200.9854888916016	310.9334716796875	1121.853515625	-335.9230651855469	307.9886169433594	1158.833984375	-267.9775695800781	529.572998046875	1366.86572265625	-286.6000366210938	281.0116271972656	1309.333862304688	-253.7465057373047	306.7846374511719	1603.298950195312	-272.2402038574219	490.9877014160156	1500.775268554688	-287.2245178222656	269.69775390625	1419.764404296875	-174.8143768310547	286.4790344238281	1583.545166015625	-371.5790100097656	364.0450439453125	1570.989501953125	-451.0314331054688	329.1051940917969	1440.000244140625	-516.0777587890625	321.5426330566406	1223.036376953125	-539.1113891601562	270.2054443359375	1213.62109375	-468.815185546875	410.8868103027344	959.2763671875	-521.0150756835938	322.9604797363281	938.9843139648438	-528.546630859375	327.8705139160156	1105.8916015625	-547.1333618164062	410.4394836425781	763.9974975585938	-497.613525390625	345.0652160644531	861.9210205078125	-535.039794921875	415.5690002441406	867.870361328125	-533.609619140625	388.2512512207031	1589.67138671875	-100.1752471923828	387.5426025390625	1518.9853515625	-31.91918182373047	421.442626953125	1228.688598632812	14.6086483001709	396.8667907714844	1216.330322265625	-79.10057830810547	612.7322998046875	1023.4326171875	-9.232645034790039	550.4757690429688	992.357421875	34.38234329223633	462.8959350585938	1162.803833007812	30.26811981201172	682.32568359375	839.7794799804688	-18.27840614318848	668.4432983398438	926.2594604492188	-2.39874529838562	611.2183227539062	905.4694213867188	38.42836380004883	351.4690246582031	1773.95166015625	-202.0881958007812	499.3558959960938	1844.29638671875	-350.3045654296875	510.5594787597656	1849.964965820312	-221.0790557861328	329.7087097167969	1771.571533203125	-336.1313781738281	401.9590759277344	1039.808471679688	-453.7682800292969	460.3206787109375	1031.307495117188	-91.32590484619141	535.5578002929688	1106.966186523438	-148.8429412841797	509.178466796875	1112.028442382812	-414.55908203125	578.4400634765625	551.707275390625	-430.679443359375	509.8703002929688	691.42822265625	-455.0266723632812	378.3515625	62.65950775146484	-453.1753234863281	435.8583374023438	317.7257080078125	-467.8606872558594	602.4923706054688	67.71145629882812	-401.0943298339844	526.8848266601562	65.51811218261719	-365.1587219238281	499.7831420898438	51.89413833618164	-476.6054992675781	310.3108825683594	69.15994262695312	-390.3106689453125	465.7453308105469	538.6365356445312	-145.3444213867188	483.1535034179688	819.4725952148438	-109.2427139282227	411.2947998046875	27.44766044616699	-202.9496459960938	450.8101806640625	404.8638305664062	-142.6797027587891	641.1921997070312	39.76457595825195	-267.3233032226562	578.522216796875	36.10527801513672	-305.6630249023438	545.308349609375	36.38188552856445	-186.2665710449219	352.186767578125	33.33037948608398	-248.6400451660156	
